<svg width="17" height="11" viewBox="0 0 17 11" fill="none" xmlns="http://www.w3.org/2000/svg">
<g id="Group">
<g id="Group_2">
<path id="Vector" d="M14.471 1.54274C14.471 0.714913 13.7207 0.0375977 12.8038 0.0375977H10.303V1.54274H12.8038V3.53706L9.90285 6.81075H6.96859V3.04789H3.63419C1.79194 3.04789 0.299805 4.39499 0.299805 6.05818V8.31589H1.967C1.967 9.56516 3.08402 10.5736 4.46779 10.5736C5.85156 10.5736 6.96859 9.56516 6.96859 8.31589H10.7031L14.471 4.06386V1.54274ZM4.46779 9.06846C4.00931 9.06846 3.63419 8.72981 3.63419 8.31589H5.30139C5.30139 8.72981 4.92627 9.06846 4.46779 9.06846Z" fill="black"/>
<path id="Vector_2" d="M6.96854 0.790161H2.80054V2.29529H6.96854V0.790161Z" fill="black"/>
<path id="Vector_3" d="M14.471 6.05817C13.0872 6.05817 11.9702 7.06661 11.9702 8.31587C11.9702 9.56514 13.0872 10.5736 14.471 10.5736C15.8548 10.5736 16.9718 9.56514 16.9718 8.31587C16.9718 7.06661 15.8548 6.05817 14.471 6.05817ZM14.471 9.06844C14.0125 9.06844 13.6374 8.72978 13.6374 8.31587C13.6374 7.90196 14.0125 7.5633 14.471 7.5633C14.9295 7.5633 15.3046 7.90196 15.3046 8.31587C15.3046 8.72978 14.9295 9.06844 14.471 9.06844Z" fill="black"/>
</g>
</g>
</svg>
